# xmcd CD database file
#
# Track frame offsets:
#	150
#	15770
#	30100
#	44765
#	59525
#	73930
#	86582
#	101397
#	115930
#	131655
#	147325
#	158638
#	171525
#	183828
#	195366
#
# Disc length: 2792 seconds
#
# Revision: 0
# Processed by: cddbd v1.5.2PL0 Copyright (c) Steve Scherf et al.
# Submitted via: CDex 1.51
#
DISCID=c50ae60f
DTITLE=Various Artist - Vocalists Of Women(2)
DYEAR=1900
DGENRE=Jazz
TTITLE0=IT'S MAGIC/DORIS DAY
TTITLE1=WITH MY EYES WIDE OPEN I'M DREAMING/PATTI PAGE
TTITLE2=WHY DON'T YOU DO RIGHT/PEGGY LEE
TTITLE3=OH! LADY.BE GOOD!/ELLAFITZGWRALD
TTITLE4=SOLTUDE/BILLIE HOLIDAY
TTITLE5=WHAT A DIFFRENCE ADAY MADE/SARAH VAUGHAN
TTITLE6=LOVWE.COME BACK TO ME/MIDRED BAILEY
TTITLE7=AND THE ANGELS SING/MARTHA TILTON
TTITLE8=IT'S BEEN A LONG.LONG TIME/KITTY KALLEN
TTITLE9=SMOKE GETS IN YOUR EYES/DINAH SHORE
TTITLE10=SWEET LORRAINE/JUNE CHRISTY
TTITLE11=IT'S ONLY A PEPER MOON/DOTTIE REID
TTITLE12=A TREE IN THE MEADOW/MARGARET WHITING
TTITLE13=YOU ALWAYS HURT THE ONE YOU LOVE/KAY STARR 
TTITLE14=BEI MIR BIST DU SCHOEN/THE ANDREWS SISTERS
EXTD=
EXTT0=
EXTT1=
EXTT2=
EXTT3=
EXTT4=
EXTT5=
EXTT6=
EXTT7=
EXTT8=
EXTT9=
EXTT10=
EXTT11=
EXTT12=
EXTT13=
EXTT14=
PLAYORDER=
